<svg width="24" height="24" viewBox="0 0 24 24" fill="none" xmlns="http://www.w3.org/2000/svg">
<path fill-rule="evenodd" clip-rule="evenodd" d="M8.03806 6.66663H5.72222C4.49492 6.66663 3.5 7.66155 3.5 8.88885V9.37125L10.7664 12.0689C11.1781 12.2217 11.6137 12.3 12.0527 12.3H12.9473C13.3863 12.3 13.8219 12.2217 14.2336 12.0689L21.5 9.37125V8.88885C21.5 7.66155 20.5051 6.66663 19.2778 6.66663H16.962C16.5267 5.12764 15.1117 4 13.4334 4H11.5667C9.88834 4 8.47336 5.12764 8.03806 6.66663ZM10.2333 6.66663H14.7668C14.4627 6.26183 13.9786 6 13.4334 6H11.5667C11.0214 6 10.5373 6.26183 10.2333 6.66663ZM13.5 8.75C13.5 8.19772 13.0523 7.75 12.5 7.75C11.9477 7.75 11.5 8.19772 11.5 8.75C10.9477 8.75 10.5 9.19772 10.5 9.75C10.5 10.3023 10.9477 10.75 11.5 10.75C11.5 11.3023 11.9477 11.75 12.5 11.75C13.0523 11.75 13.5 11.3023 13.5 10.75C14.0523 10.75 14.5 10.3023 14.5 9.75C14.5 9.19772 14.0523 8.75 13.5 8.75Z" fill="#101928"/>
<path d="M5.02687 17.3022L4.40002 11.1111L11.0958 13.591C11.4293 13.7145 11.7821 13.7778 12.1377 13.7778H12.8623C13.218 13.7778 13.5708 13.7145 13.9043 13.591L20.6 11.1111L19.9732 17.3022C19.8181 18.8342 18.5283 20 16.9884 20H8.01161C6.47178 20 5.18199 18.8342 5.02687 17.3022Z" fill="#101928"/>
</svg>
