<svg width="24" height="24" viewBox="0 0 24 24" fill="currentColor" xmlns="http://www.w3.org/2000/svg">
<path d="M10.3401 3.6429C8.95985 3.12474 7.73909 2.66644 6.06574 3.33021C3.38618 4.39312 2.11714 7.32194 2.60114 10.2018C3.34326 14.6176 8.53647 18.4815 11.0896 20.1391C11.9526 20.6995 13.0474 20.6995 13.9104 20.1391C16.4635 18.4815 21.6567 14.6176 22.3989 10.2018C22.8829 7.32194 21.6138 4.39313 18.9343 3.33021C17.2609 2.66645 16.0402 3.12474 14.66 3.6429C14.1633 3.82934 13.6461 4.02353 13.0796 4.17599C12.7003 4.2781 12.2997 4.2781 11.9204 4.17599C11.3539 4.02353 10.8367 3.82934 10.3401 3.6429ZM11.8575 8.4855C11.6697 8.17254 11.3263 7.98673 10.9616 8.00074C10.5969 8.01474 10.2688 8.22634 10.1056 8.55279L8.38197 12H8C7.44772 12 7 12.4477 7 13C7 13.5523 7.44772 14 8 14H9C9.37877 14 9.72504 13.786 9.89443 13.4472L11.0798 11.0766L13.1425 14.5145C13.3189 14.8084 13.6335 14.9916 13.9762 14.9997C14.3189 15.0079 14.6419 14.8399 14.8321 14.5547L16.5352 12H17C17.5523 12 18 11.5523 18 11C18 10.4477 17.5523 10 17 10H16C15.6656 10 15.3534 10.1671 15.1679 10.4453L14.0445 12.1305L11.8575 8.4855Z"/>
</svg>
