<svg width="24" height="24" viewBox="0 0 24 24" fill="none" xmlns="http://www.w3.org/2000/svg">
<path d="M13 9.25C13 8.69772 12.5523 8.25 12 8.25C11.4477 8.25 11 8.69772 11 9.25C10.4477 9.25 10 9.69772 10 10.25C10 10.8023 10.4477 11.25 11 11.25C11 11.8023 11.4477 12.25 12 12.25C12.5523 12.25 13 11.8023 13 11.25C13.5523 11.25 14 10.8023 14 10.25C14 9.69772 13.5523 9.25 13 9.25Z"/>
<path d="M2 10.2111C2 10.9233 2.39182 11.5439 2.97165 11.8693L3.53193 17.4029C3.73876 19.4456 5.45848 21 7.51159 21H16.4884C18.5415 21 20.2612 19.4456 20.4681 17.4029L21.0284 11.8693C21.6082 11.5439 22 10.9233 22 10.2111V8.88889C22 7.10931 20.5574 5.66667 18.7778 5.66667H16.462C16.0267 4.12766 14.6117 3 12.9333 3H11.0667C9.3883 3 7.97331 4.12766 7.53802 5.66667H5.22222C3.44264 5.66667 2 7.1093 2 8.88889V10.2111ZM5.22222 7.66667C4.54721 7.66667 4 8.21387 4 8.88889V10.116C4.09411 10.1254 4.18437 10.1478 4.26897 10.1814L10.9431 12.6533C11.1654 12.7356 11.4006 12.7778 11.6377 12.7778H12.3623C12.5994 12.7778 12.8346 12.7356 13.0569 12.6533L19.731 10.1814C19.8156 10.1478 19.9059 10.1254 20 10.116V8.88889C20 8.21387 19.4528 7.66667 18.7778 7.66667H5.22222ZM5.52176 17.2015L5.05645 12.6058L10.2485 14.5288C10.6931 14.6935 11.1635 14.7778 11.6377 14.7778H12.3623C12.8365 14.7778 13.3069 14.6935 13.7515 14.5288L18.9436 12.6058L18.4782 17.2015C18.3748 18.2228 17.515 19 16.4884 19H7.51159C6.48503 19 5.62517 18.2228 5.52176 17.2015ZM12.9333 5C13.4786 5 13.9627 5.26185 14.2668 5.66667H9.73321C10.0373 5.26185 10.5214 5 11.0667 5H12.9333Z"/>
</svg>
