<svg width="24" height="24" viewBox="0 0 24 24" fill="currentColor" xmlns="http://www.w3.org/2000/svg">
<path d="M11.3575 8.48548C11.1697 8.17252 10.8263 7.98671 10.4616 8.00072C10.0969 8.01472 9.7688 8.22632 9.60557 8.55277L7.88197 12H7.5C6.94772 12 6.5 12.4477 6.5 13C6.5 13.5523 6.94772 14 7.5 14H8.5C8.87877 14 9.22503 13.786 9.39443 13.4472L10.5798 11.0765L12.6425 14.5145C12.8189 14.8084 13.1335 14.9915 13.4762 14.9997C13.8189 15.0079 14.1419 14.8399 14.3321 14.5547L16.0352 12H16.5C17.0523 12 17.5 11.5523 17.5 11C17.5 10.4477 17.0523 9.99998 16.5 9.99998H15.5C15.1656 9.99998 14.8534 10.1671 14.6679 10.4453L13.5445 12.1305L11.3575 8.48548Z"/>
<path fill-rule="evenodd" d="M11.6803 3.21034C11.1964 3.08011 10.7455 2.91447 10.2736 2.7375L10.1817 2.70297C9.74948 2.54063 9.28432 2.36591 8.81028 2.23475C7.74226 1.93924 6.58331 1.85075 5.19702 2.40065C1.98219 3.67589 0.571525 7.13393 1.11497 10.3675C1.53732 12.8806 3.19546 15.1328 4.95606 16.9088C6.73637 18.7047 8.73813 20.1294 10.045 20.9779C11.2392 21.7532 12.7608 21.7532 13.955 20.9779C15.2619 20.1294 17.2636 18.7047 19.0439 16.9088C20.8045 15.1328 22.4627 12.8806 22.885 10.3675C23.4285 7.13392 22.0178 3.6759 18.803 2.40066C17.4167 1.85075 16.2578 1.93924 15.1897 2.23475C14.7157 2.36592 14.2505 2.54063 13.8184 2.70296L13.7264 2.7375C13.2545 2.91447 12.8036 3.08011 12.3197 3.21034C12.1106 3.26662 11.8894 3.26662 11.6803 3.21034ZM5.93446 4.25973C6.82361 3.90704 7.52166 3.95334 8.27693 4.16232C8.66164 4.26877 9.04798 4.41374 9.50312 4.58454L9.57131 4.61012C10.0423 4.78678 10.5739 4.98374 11.1604 5.1416C11.71 5.28953 12.29 5.28953 12.8396 5.1416C13.4261 4.98374 13.9577 4.78679 14.4287 4.61012L14.4969 4.58453C14.952 4.41374 15.3384 4.26877 15.7231 4.16232C16.4784 3.95335 17.1764 3.90704 18.0655 4.25973C20.2098 5.11032 21.3372 7.50992 20.9127 10.036C20.5929 11.9388 19.2834 13.8264 17.6236 15.5007C15.9835 17.1552 14.1121 18.4913 12.8659 19.3004C12.3341 19.6457 11.6659 19.6457 11.1341 19.3004C9.88791 18.4913 8.01651 17.1552 6.37642 15.5007C4.71661 13.8264 3.40708 11.9388 3.08731 10.036C2.66276 7.50991 3.79017 5.11031 5.93446 4.25973Z"/>
</svg>
